<svg xmlns="http://www.w3.org/2000/svg" xmlns:xlink="http://www.w3.org/1999/xlink" version="1.1" xml:space="preserve" class="u-svg-content" viewBox="0 0 399.744 399.744" x="0px" y="0px" id="svg-3688" style="enable-background:new 0 0 399.744 399.744" fill="#fff">
  <path id="XMLID_1316_" d="M122.727,287.403l-1.626,4.393c-1.344,3.631-4.783,5.878-8.441,5.878c-1.038,0-2.094-0.182-3.124-0.563  c-4.661-1.727-7.041-6.904-5.315-11.565l1.626-4.393c1.726-4.662,6.902-7.041,11.565-5.315  C122.073,277.564,124.453,282.742,122.727,287.403z M87.666,301.93c-4.661-1.73-9.839,0.648-11.567,5.31l-1.628,4.392  c-1.728,4.66,0.649,9.84,5.31,11.567c1.032,0.383,2.088,0.564,3.128,0.564c3.656,0,7.094-2.245,8.439-5.874l1.628-4.392  C94.703,308.838,92.326,303.659,87.666,301.93z M116.17,362.186c-4.992,6.813-9.707,13.249-13.042,18.453  c-8.736,13.635-23.299,19.066-38.208,19.066c-8.072,0-16.243-1.592-23.649-4.335c-21.063-7.803-40.762-26.74-37.288-51.458  c0.86-6.119,1.475-14.071,2.126-22.49c2.786-36.011,6.252-80.827,32.487-97.621c0.964-0.617,1.948-1.188,2.951-1.715  c-5.908-13.839-5.224-29.718,2.421-42.263c1.043-1.712,2.629-3.027,4.505-3.735c12.807-4.839,27.499-3.211,39.626,3.938  c9.074-10.768,22.38-17.161,36.082-16.844c2.004,0.047,3.936,0.762,5.487,2.032c10.594,8.669,16.534,22.206,16.404,36.286  c13.863,2.474,26.067,10.813,32.632,22.826c0.961,1.76,1.308,3.791,0.984,5.77c-2.374,14.497-12.2,26.99-25.697,33.641  c0.419,1.053,0.793,2.127,1.123,3.224C164.078,296.793,137.514,333.051,116.17,362.186z M137.876,272.141  c-0.766-2.548-2-4.901-3.715-7.07c-0.252-0.269-0.49-0.555-0.709-0.854c-3.729-4.29-9.437-7.832-17.227-10.718l-39.351-14.577  c-7.789-2.885-14.426-3.912-20.05-3.092c-0.364,0.086-0.73,0.148-1.099,0.188c-2.714,0.528-5.182,1.51-7.422,2.944  c-18.685,11.961-21.898,53.511-24.246,83.849c-0.673,8.708-1.31,16.932-2.248,23.607c-2.081,14.806,11.416,26.777,25.715,32.074  c14.323,5.308,32.384,5.023,40.449-7.563c3.638-5.678,8.514-12.333,13.676-19.38C119.632,327.003,144.26,293.387,137.876,272.141z   M143.431,248.738c8.661-3.313,15.32-10.191,17.784-18.457c-5.38-7.41-14.782-11.857-24.798-11.525  c-2.77,0.086-5.449-1.107-7.226-3.249c-1.776-2.143-2.462-4.985-1.857-7.702c2.179-9.787-0.455-19.842-6.743-26.497  c-9.105,0.953-17.654,6.865-22.376,15.71c-1.311,2.455-3.683,4.165-6.426,4.633c-2.745,0.47-5.548-0.359-7.599-2.241  c-7.387-6.781-17.417-9.53-26.322-7.409c-3.517,7.875-2.946,17.431,1.466,25.587c0.432-0.012,0.866-0.018,1.303-0.018  c6.928,0,14.438,1.49,22.491,4.474c0,0,0,0,0,0l39.35,14.577C131.037,239.791,138.033,243.84,143.431,248.738z M89.417,265.468  c-4.659-1.727-9.839,0.651-11.566,5.313l-1.627,4.392c-1.728,4.66,0.651,9.839,5.312,11.566c1.031,0.382,2.087,0.563,3.126,0.563  c3.657,0,7.095-2.246,8.44-5.876l1.627-4.392C96.456,272.375,94.077,267.196,89.417,265.468z M377.84,86.923  c-16.207,16.205-39.225,22.107-59.541,15.91l-8.857,239.111c0.041,2.762-0.744,6.688-4.412,10.545  c-11.745,12.348-49.027,16.729-77.386,16.729c-13.659,0-81.795-1.316-81.795-27.303c0-4.971,4.029-9,9-9  c4.437,0,8.124,3.21,8.864,7.435c4.286,3.919,26.686,10.868,63.931,10.868c36.796,0,59.179-6.74,63.836-10.639l8.373-226.033  c-4.117,1.446-8.418,2.54-12.338,3.416c-16.093,3.598-37.355,5.578-59.871,5.578c-22.516,0-43.779-1.98-59.872-5.578  c-3.92-0.876-8.222-1.971-12.339-3.416l1,27.011c0.184,4.968-3.694,9.144-8.661,9.327c-4.975,0.162-9.143-3.694-9.327-8.661  l-1.669-45.107c-0.017-0.274-0.025-0.553-0.026-0.835c0-0.041,0-0.081,0-0.121c0.068-12.907,17.583-18.013,23.345-19.692  c4.772-1.393,9.768,1.35,11.159,6.122c1.391,4.771-1.35,9.768-6.122,11.159c-3.139,0.915-5.431,1.779-7.088,2.52  c9.33,4.055,33.287,9.272,69.601,9.272c36.41,0,60.397-5.245,69.673-9.305c-9.276-4.06-33.263-9.305-69.673-9.305  c-7.928,0-15.691,0.256-23.167,0.763c-0.177,4.349-3.495,8.044-7.955,8.562c-4.93,0.578-9.404-2.964-9.979-7.9l-9.1-78.314  c-0.574-4.938,2.964-9.405,7.901-9.979c4.932-0.58,9.405,2.964,9.979,7.9l7.184,61.824c8.112-0.568,16.539-0.855,25.136-0.855  c22.516,0,43.778,1.98,59.871,5.578c4.295,0.96,9.046,2.181,13.513,3.84c-2.26-17.811,4.068-36.56,17.874-50.364  c18.379-18.381,45.525-23.505,67.552-12.753c1.802,0.88,3.259,2.337,4.139,4.139C401.345,41.393,396.221,68.541,377.84,86.923z   M375.674,30.151c-14.576-5.619-31.908-1.575-44.045,10.563c-9.355,9.354-13.904,21.794-12.924,33.68l26.361-26.362  c3.515-3.514,9.213-3.514,12.728,0c3.515,3.515,3.515,9.213,0,12.729l-26.36,26.36c11.886,0.981,24.323-3.57,33.677-12.925  C377.249,62.057,381.296,44.726,375.674,30.151z M229.6,146.942l-3.312,3.313c-3.514,3.516-3.514,9.214,0.002,12.729  c1.757,1.757,4.06,2.635,6.363,2.635c2.304,0,4.607-0.879,6.365-2.637l3.312-3.313c3.514-3.516,3.514-9.214-0.001-12.729  C238.812,143.425,233.114,143.427,229.6,146.942z M201.465,138.77c-4.937,0.573-8.475,5.041-7.901,9.979l20.396,175.513  c0.533,4.585,4.422,7.962,8.929,7.962c0.347,0,0.698-0.021,1.05-0.062c4.937-0.573,8.475-5.041,7.901-9.979l-20.396-175.513  C210.871,141.733,206.403,138.197,201.465,138.77z M265.583,186.009c2.303,0,4.606-0.879,6.364-2.636l3.312-3.312  c3.515-3.515,3.515-9.214,0-12.729c-3.515-3.514-9.213-3.514-12.728,0l-3.312,3.312c-3.515,3.515-3.515,9.214,0,12.729  C260.977,185.131,263.28,186.009,265.583,186.009z M250.901,198.474c-3.515-3.514-9.213-3.514-12.728,0  c-3.515,3.515-3.515,9.214,0,12.729l3.312,3.312c1.757,1.757,4.061,2.636,6.364,2.636s4.606-0.879,6.364-2.636  c3.515-3.515,3.515-9.214,0-12.729L250.901,198.474z M304.721,369.803c-3.721-3.297-9.41-2.949-12.705,0.772  c-3.448,3.895-25.869,11.168-64.372,11.168c-38.2,0-60.731-7.334-64.305-11.26c-3.346-3.679-9.039-3.944-12.714-0.599  c-3.676,3.347-3.943,9.038-0.598,12.714c11.518,12.654,49.01,17.145,77.617,17.145c28.873,0,66.585-4.514,77.849-17.236  C308.788,378.786,308.443,373.098,304.721,369.803z"/>
</svg>
