<svg xmlns="http://www.w3.org/2000/svg" xmlns:xlink="http://www.w3.org/1999/xlink" version="1.1" xml:space="preserve" class="u-svg-content" viewBox="0 0 508.844 508.844" id="svg-bc89" fill="#fff"><g id="XMLID_1296_"><path id="XMLID_1299_" d="m468.082 237.546c26.286-26.286 40.762-61.234 40.762-98.408s-14.476-72.122-40.762-98.408c-54.262-54.263-142.554-54.263-196.815 0-.155.154-.309.31-.463.465-7.323-3.903-15.538-5.975-24.07-5.975-13.692 0-26.565 5.333-36.248 15.014-9.683 9.682-15.015 22.555-15.015 36.248 0 11.438 3.733 22.297 10.602 31.209l-206.073 391.12 391.12-206.073c8.912 6.869 19.77 10.602 31.209 10.602 13.692 0 26.565-5.332 36.248-15.014 16.298-16.298 19.308-40.929 9.025-60.304.161-.158.32-.317.48-.476zm-284.647 20.036 48.308 19.479 19.482 48.313 18.453 7.441-74.747 39.383-17.448-40.876-40.867-17.441 39.381-74.745zm-60.851 82.927 32.038 13.673 13.679 32.046-96.629 50.912zm181.871-26.018-30.178-12.169-19.482-48.313-48.308-19.478-12.166-30.174 33.745-64.047 140.436 140.436zm142.414-98.158c-2.763 2.763-5.73 5.425-8.819 7.914l-13.005 10.478 12.319 12.319c8.29 8.291 8.29 21.779 0 30.07-4.016 4.016-9.355 6.227-15.035 6.227s-11.019-2.211-15.035-6.227l-175.596-175.598c-4.016-4.016-6.228-9.355-6.228-15.034s2.211-11.019 6.228-15.035c4.016-4.016 9.355-6.228 15.035-6.228s11.019 2.212 15.04 6.233l12.319 12.308 10.473-12.999c2.489-3.089 5.151-6.056 7.914-8.819 42.565-42.565 111.824-42.565 154.39 0 20.62 20.62 31.975 48.035 31.975 77.195 0 29.161-11.356 56.576-31.975 77.196z"></path>
</g></svg>