<svg xmlns="http://www.w3.org/2000/svg" xmlns:xlink="http://www.w3.org/1999/xlink" version="1.1" xml:space="preserve" class="u-svg-content" viewBox="0 0 512 512" id="svg-250a" fill="#fff">
  <g>
    <path d="m406 210c0-16.719-6.892-32.333-18.856-43.557 2.561-10.49 3.856-21.026 3.856-31.443 0-74.439-60.561-135-135-135s-135 60.561-135 135c0 10.65 1.236 21.185 3.683 31.439-11.856 11.18-18.683 26.792-18.683 43.561 0 29.398 21.259 53.908 49.206 59.009l86.735 233.22c2.184 5.874 7.791 9.771 14.059 9.771s11.875-3.897 14.059-9.771l86.735-233.22c27.948-5.101 49.206-29.611 49.206-59.009zm-219.731 56.469c9.619-3.463 18.097-9.321 24.731-16.846 11.003 12.481 27.092 20.377 45 20.377s33.997-7.896 45-20.377c4.03 4.571 8.733 8.535 13.968 11.711l-99.708 83.09zm69.731 187.499-29.652-79.732 85.938-71.615zm90-213.968c-16.542 0-30-13.458-30-30 0-8.284-6.716-15-15-15s-15 6.716-15 15c0 16.542-13.458 30-30 30s-30-13.458-30-30c0-8.284-6.716-15-15-15s-15 6.716-15 15c0 16.542-13.458 30-30 30s-30-13.458-30-30c0-10.347 5.176-19.8 13.846-25.286 5.789-3.663 8.36-10.783 6.248-17.301-3.38-10.427-5.094-21.333-5.094-32.413 0-57.897 47.103-105 105-105s105 47.103 105 105c0 10.661-1.782 21.567-5.299 32.413-2.112 6.517.459 13.637 6.248 17.3 8.798 5.568 14.051 15.021 14.051 25.287 0 16.542-13.458 30-30 30z"/>
  </g>
</svg>
