<svg xmlns="http://www.w3.org/2000/svg" xmlns:xlink="http://www.w3.org/1999/xlink" version="1.1" xml:space="preserve" class="u-svg-content" viewBox="0 0 512 512" x="0px" y="0px" id="svg-7cd1" style="enable-background:new 0 0 512 512" fill="#ffffff">
  <g>
    <g>
      <path d="M374.027,273.986c22.304-27.177,34.589-61.538,34.589-96.755v-39.385c0-8.157-6.613-14.769-14.769-14.769h-5.288    C383.503,54.363,325.983,0,256,0S128.497,54.363,123.442,123.077h-5.288c-8.157,0-14.769,6.613-14.769,14.769v39.385    c0,35.217,12.284,69.578,34.589,96.755c19.415,23.654,45.615,40.98,74.704,49.606v104.716H192    c-38.004,0-68.923,30.918-68.923,68.923c0,8.157,6.613,14.769,14.769,14.769h236.308c8.157,0,14.769-6.613,14.769-14.769    c0-38.005-30.918-68.923-68.923-68.923h-20.677V323.591C328.412,314.966,354.611,297.64,374.027,273.986z M256,29.538    c53.687,0,97.948,41.13,102.919,93.538H153.08C158.052,70.669,202.313,29.538,256,29.538z M284.554,457.846H320    c16.497,0,30.658,10.195,36.512,24.615H155.488c5.855-14.421,20.014-24.615,36.512-24.615h35.446    c8.157,0,14.769-6.613,14.769-14.769v-130.97c0-6.984-4.892-13.013-11.725-14.452c-56.535-11.908-97.568-62.555-97.568-120.424    v-24.615h4.923h236.308h4.923v24.615c0,57.87-41.033,108.516-97.568,120.425c-6.833,1.44-11.725,7.468-11.725,14.452v130.969    C269.785,451.233,276.397,457.846,284.554,457.846z"/>
    </g>
  </g>
</svg>
