<svg xmlns="http://www.w3.org/2000/svg" xmlns:xlink="http://www.w3.org/1999/xlink" version="1.1" xml:space="preserve" class="u-svg-content" viewBox="0 0 481.789 481.789" x="0px" y="0px" id="svg-48a9" style="enable-background:new 0 0 481.789 481.789" fill="#fff">
  <path d="M410.589,70.342c0.908-2.493,0.789-5.244-0.332-7.648s-3.151-4.265-5.644-5.172L364.03,42.75  c-2.491-0.907-5.243-0.787-7.646,0.333c-2.404,1.121-4.264,3.151-5.171,5.644l-32.884,90.348c-1.647-2.826-3.405-5.598-5.289-8.304  c-12.242-17.575-28.678-31.435-47.864-40.466c0.171-1.642,0.26-3.308,0.26-4.994c0-23.349-16.764-42.847-38.886-47.116  C222.286,16.455,203.094,0,180.124,0h-8.509c-5.523,0-10,4.478-10,10s4.477,10,10,10h8.509c12.05,0,22.296,7.846,25.915,18.696  c-20.977,5.132-36.593,24.079-36.593,46.615c0,0.582,0.023,1.158,0.044,1.735c-20.925,8.199-39.555,22.318-53.08,40.403  c-15.755,21.066-24.083,46.145-24.083,72.521v19.716c0,0.713,0.077,1.407,0.219,2.078c-6.564,6.926-10.6,16.271-10.6,26.544  c0,6.758,1.75,13.114,4.813,18.646h-6.164c-5.523,0-10,4.478-10,10c0,13.314,1.798,26.215,5.147,38.482  c0.078,0.386,0.185,0.761,0.307,1.13c15.123,53.691,60.197,94.953,115.963,104.54l-51.047,43.039  c-3.211,2.707-4.388,7.132-2.947,11.077c1.441,3.944,5.193,6.568,9.393,6.568h138.916c0.006,0,0.013,0,0.02,0  c5.523,0,10-4.478,10-10c0-3.253-1.553-6.143-3.958-7.969l-50.663-42.716c68.857-11.838,121.417-71.968,121.417-144.152  c0-5.522-4.477-10-10-10h-12.852c2.774-5.011,4.47-10.697,4.765-16.747L410.589,70.342z M366.586,64.964l21.787,7.93  l-53.677,147.322c0.009-0.177,0.027-0.352,0.027-0.531v-19.716c0-11.664-1.666-23.107-4.872-34.077L366.586,64.964z M217.441,57.316  c15.437,0,27.995,12.559,27.995,27.994c0,15.437-12.558,27.995-27.995,27.995c-12.999,0-23.956-8.907-27.092-20.938  c-0.075-0.523-0.18-1.047-0.342-1.568c-0.01-0.032-0.024-0.061-0.034-0.092c-0.343-1.747-0.527-3.551-0.527-5.397  C189.446,69.875,202.004,57.316,217.441,57.316z M174.441,106.596c7.859,15.813,24.177,26.71,43,26.71  c17.655,0,33.104-9.589,41.44-23.827c24.381,12.159,42.364,33.207,50.687,58.374c0.139,0.605,0.335,1.192,0.582,1.759  c2.989,9.63,4.574,19.836,4.574,30.357v10.61c-2.657-0.58-5.412-0.894-8.241-0.894c-5.252,0-9.609,4.063-9.976,9.302  s3.382,9.869,8.583,10.601l7.136,1.004c7.466,2.427,12.878,9.451,12.878,17.716c0,10.269-8.354,18.622-18.622,18.622H194.985  c-5.523,0-10,4.478-10,10v39.203c0,4.065-3.308,7.373-7.373,7.373c-4.066,0-7.374-3.308-7.374-7.373l0-39.18l0,0l0,0v-0.023  c0-2.652-1.054-5.195-2.929-7.071c-1.875-1.875-4.419-2.929-7.071-2.929h-39.671c-10.268,0-18.622-8.354-18.622-18.622  s8.354-18.622,18.622-18.622h140.643c5.523,0,10-4.478,10-10s-4.477-10-10-10H112.693c-0.124,0-0.243,0.014-0.366,0.019v-9.735  C112.327,158.609,136.929,122.206,174.441,106.596z M93.398,303.432c-1.152-5.376-1.969-10.875-2.41-16.479h59.251l0,16.479H93.398z   M174.786,461.789l42.084-35.482l42.084,35.482H174.786z M216.87,403.227c-53.222,0-98.852-33.102-117.403-79.795h51.768  c3.203,11.56,13.812,20.073,26.377,20.073s23.174-8.513,26.377-20.073h84.862c5.523,0,10-4.478,10-10s-4.477-10-10-10h-83.866  v-16.479h137.767C337.637,351.923,283.131,403.227,216.87,403.227z"/>
</svg>
